# xmcd
#
# Track frame offsets:
#	150
#	9472
#	20986
#	33062
#	44615
#	50061
#	62944
#	74359
#	86351
#	97387
#	109507
#	121440
#	134476
#	145369
#	157976
#	171076
#	183252
#	196861
#	210095
#	222810
#
# Disc length: 3133 seconds
#
# Revision: 4
# Processed by: cddbd v1.5.2PL0 Copyright (c) Steve Scherf et al.
# Submitted via: audiograbber 1.83.01
#
DISCID=210c3b14
DTITLE=Various (corrected) - The History of Country and Western Music Vol. 8
DYEAR=1941
DGENRE=Country
TTITLE0=Gene Autry - That Silver-Haired Daddy of Mine
TTITLE1=Modern Mountaineers - Mary Jane
TTITLE2=Adolph Hofner - Alamo Rag
TTITLE3=Ernest Tubb - I Ain't Honky Tonkin' Anymore
TTITLE4=Gene Autry - Down Mexico Way
TTITLE5=Johnnie  Lee Wills - Milk Cow Blues
TTITLE6=Dickie McBride - Tulsa Twist
TTITLE7=Ernest Tubb - Walkin' the Floor Over You
TTITLE8=Gene Autry - You Are My Sunshine
TTITLE9=Bob Wills - Take Me Back to Tulsa
TTITLE10=W. Walker and G. Sullivan - When My Blue Moon
TTITLE11=Bill Mounce - I Found a New Baby
TTITLE12=Bill  Mounce - Kickin' It Off
TTITLE13=Village Boys - Old Joe is At It Again
TTITLE14=Bill Boyd - Jitterbug Jive
TTITLE15=Bill Mounce - I've Been Drafted
TTITLE16=Jimmy Hart - Teeny Weeny
TTITLE17=Shelley Lee Alley - The Big House Blues
TTITLE18=Ernest Tubb - You Nearly Lose Your Mind
TTITLE19=Roy Acuff - Wreck on the Highway
EXTD=Mistakes in artist names and song titles corrected.
EXTT0=
EXTT1=
EXTT2=
EXTT3=
EXTT4=
EXTT5=
EXTT6=
EXTT7=
EXTT8=
EXTT9=
EXTT10=
EXTT11=
EXTT12=
EXTT13=
EXTT14=
EXTT15=
EXTT16=
EXTT17=
EXTT18=
EXTT19=
PLAYORDER=
